<?xml version="1.0" standalone="no"?>
<!DOCTYPE svg PUBLIC "-//W3C//DTD SVG 20010904//EN"
 "http://www.w3.org/TR/2001/REC-SVG-20010904/DTD/svg10.dtd">
<svg version="1.0" xmlns="http://www.w3.org/2000/svg"
 width="967.000000pt" height="550.000000pt" viewBox="0 0 967.000000 550.000000"
 preserveAspectRatio="xMidYMid meet">

<g transform="translate(0.000000,550.000000) scale(0.100000,-0.100000)"
fill="#000000" stroke="none">
<path d="M4283 4723 c-15 -5 -17 -23 -4 -23 5 0 11 7 15 15 3 8 4 15 3 14 -1
0 -8 -3 -14 -6z"/>
<path d="M4155 4643 c-55 -36 -111 -76 -125 -88 -193 -171 -290 -296 -373
-480 -103 -230 -133 -370 -157 -740 -15 -228 -26 -282 -59 -300 -18 -10 -21
-14 -9 -15 9 0 19 -9 23 -20 7 -24 -14 -178 -26 -185 -4 -3 -18 17 -30 45 -30
70 -109 132 -109 86 0 -8 -3 -21 -6 -30 -4 -10 -1 -16 7 -16 23 0 77 -67 89
-110 6 -22 15 -86 21 -143 5 -56 18 -149 28 -207 19 -113 18 -130 -8 -131 -13
0 -13 -2 3 -12 66 -41 96 -80 120 -156 13 -42 27 -92 31 -111 15 -81 90 -287
136 -376 106 -206 255 -364 488 -519 108 -71 114 -77 197 -195 73 -104 190
-229 252 -269 72 -45 151 -64 246 -59 101 6 178 33 260 92 70 50 106 88 187
201 51 71 59 77 164 131 61 31 144 80 185 108 165 112 328 311 420 510 22 50
66 163 97 253 50 147 59 166 86 179 18 10 26 19 19 23 -12 7 -12 4 42 194 14
49 30 126 37 170 14 97 27 127 74 163 36 27 45 62 26 93 -13 19 -32 3 -76 -62
l-33 -49 -7 74 c-3 40 -6 84 -5 98 0 14 0 32 0 40 -1 8 6 116 14 240 27 398
20 572 -34 777 -69 267 -198 478 -403 663 -59 54 -73 46 -18 -10 23 -23 41
-47 41 -53 0 -6 6 -17 14 -26 8 -9 26 -29 40 -44 14 -15 26 -33 26 -39 0 -5
30 -43 68 -83 100 -108 183 -278 197 -407 8 -72 5 -318 -4 -336 -4 -9 -11 -60
-15 -112 -4 -52 -9 -115 -11 -140 -7 -57 -12 -211 -19 -515 -7 -296 -13 -373
-32 -444 -9 -31 -21 -78 -28 -106 -7 -27 -19 -61 -28 -75 -9 -14 -18 -38 -20
-55 -1 -16 -11 -45 -20 -63 -10 -18 -18 -39 -18 -47 0 -22 -77 -106 -136 -148
-29 -21 -56 -46 -59 -56 -3 -10 -14 -26 -25 -36 -11 -10 -20 -26 -20 -37 0
-10 -5 -18 -11 -18 -5 0 -16 -15 -24 -33 -8 -19 -21 -39 -29 -47 -9 -7 -16
-18 -16 -24 0 -13 -66 -76 -79 -76 -4 0 -22 -20 -40 -45 -18 -26 -51 -57 -73
-71 -22 -14 -42 -33 -45 -42 -5 -20 -63 -59 -99 -68 -14 -4 -24 -13 -24 -24 0
-11 -16 -28 -37 -41 -21 -12 -60 -41 -88 -64 -94 -79 -120 -80 -168 -6 -38 58
-48 99 -54 220 -5 99 -8 114 -25 119 -30 8 -21 16 41 35 110 35 162 65 228
134 67 70 69 92 5 51 -110 -70 -410 -163 -438 -135 -4 4 -18 7 -31 7 -13 0
-50 13 -81 29 -93 47 -165 85 -194 105 -45 30 -32 5 30 -59 57 -58 83 -75 202
-128 l55 -25 -41 -1 c-23 -1 -46 -7 -52 -14 -5 -6 -20 -52 -32 -102 -12 -49
-33 -111 -46 -136 -26 -52 -81 -105 -131 -125 -40 -17 -59 -8 -138 68 -27 26
-64 60 -82 75 -17 15 -47 48 -67 72 -21 24 -51 51 -69 60 -19 9 -33 25 -35 38
-2 12 -30 48 -63 80 -33 32 -64 68 -70 81 -5 13 -13 20 -19 17 -5 -3 -10 -2
-10 3 0 6 -22 48 -49 94 -27 45 -52 94 -56 108 -4 14 -13 32 -21 40 -7 9 -22
36 -33 61 -11 25 -30 56 -42 69 -84 97 -176 264 -190 345 -4 28 -11 61 -14 75
-30 114 -35 379 -11 545 9 61 17 185 19 277 2 92 5 170 8 172 7 7 1 144 -6
157 -4 6 -4 13 -1 16 3 3 1 14 -4 24 -6 11 -7 27 -1 41 5 13 17 68 26 123 49
282 122 452 256 597 56 61 79 93 75 105 -5 17 28 66 51 74 18 7 89 75 96 92 4
10 11 17 17 17 5 0 22 11 37 25 16 13 39 33 53 44 49 40 12 20 -85 -46z"/>
<path d="M5820 4606 c0 -2 14 -14 30 -26 17 -12 30 -18 30 -13 0 5 -13 17 -30
26 -16 10 -30 16 -30 13z"/>
<path d="M4210 3649 c-115 -15 -163 -29 -257 -74 -96 -47 -119 -70 -109 -111
8 -32 42 -32 141 1 91 29 262 46 358 34 37 -5 107 -22 156 -39 111 -38 135
-38 172 -1 33 33 39 80 13 106 -58 58 -319 104 -474 84z"/>
<path d="M5550 3530 c-81 -17 -90 -20 -110 -40 -28 -28 -25 -72 7 -110 25 -30
30 -32 77 -27 28 3 80 11 116 17 133 24 299 -3 432 -71 103 -52 138 -50 138 7
0 26 -82 104 -148 141 -107 60 -199 84 -342 88 -69 2 -145 0 -170 -5z"/>
<path d="M4068 3211 c-80 -26 -136 -61 -191 -120 -43 -46 -57 -78 -41 -94 4
-3 32 16 63 44 62 55 160 109 199 109 l25 0 -20 -22 c-42 -46 -65 -108 -65
-172 1 -89 13 -113 64 -126 24 -6 66 -17 94 -25 28 -8 76 -16 106 -17 46 -2
63 2 97 25 44 29 61 28 61 -3 0 -22 12 -32 27 -22 22 14 54 94 60 152 3 33 9
58 13 55 13 -8 90 -126 90 -138 0 -8 4 -7 10 3 31 50 -76 225 -184 300 -100
68 -282 91 -408 51z m172 -111 c24 -24 25 -48 4 -78 -19 -28 -51 -28 -81 0
-29 27 -29 51 -1 78 28 25 52 26 78 0z"/>
<path d="M5670 3109 c-81 -16 -170 -68 -243 -141 -37 -37 -73 -69 -80 -71 -6
-1 -19 -13 -29 -26 -13 -19 -14 -28 -5 -45 7 -12 13 -22 13 -24 1 -2 26 22 55
53 30 31 61 61 71 66 15 8 16 4 11 -45 -8 -73 19 -153 55 -167 14 -6 76 -13
137 -16 104 -5 115 -4 152 17 38 21 42 21 65 6 23 -15 27 -15 45 1 49 43 58
166 18 251 -28 61 -20 65 46 24 47 -30 113 -101 132 -139 12 -26 35 -30 43 -9
9 24 -30 98 -78 147 -95 98 -263 146 -408 118z m-18 -106 c36 -33 10 -103 -39
-103 -20 0 -53 38 -53 60 0 24 34 60 57 60 9 0 25 -7 35 -17z"/>
<path d="M5230 2373 c0 -129 -68 -188 -220 -188 -73 0 -93 4 -142 28 -66 32
-88 62 -103 136 -13 64 -28 74 -44 30 -39 -113 30 -239 153 -278 99 -32 162
-35 236 -12 111 34 162 103 162 217 0 53 -21 124 -37 124 -3 0 -5 -26 -5 -57z"/>
<path d="M4493 1863 c-57 -8 -38 -41 48 -81 25 -12 50 -22 56 -22 6 0 33 -9
59 -21 27 -11 71 -22 99 -25 27 -2 51 -8 53 -13 2 -6 9 -8 16 -5 14 5 68 -13
76 -25 7 -12 302 4 327 17 12 7 34 12 50 12 61 0 231 101 192 114 -104 36
-128 41 -160 34 -48 -12 -457 -10 -559 2 -111 14 -217 19 -257 13z m297 -93
c52 -6 173 -14 269 -19 95 -6 176 -12 179 -15 11 -11 -7 -18 -76 -28 -89 -14
-274 0 -417 33 -33 7 -71 19 -85 26 l-25 13 30 0 c17 0 73 -5 125 -10z"/>
</g>
</svg>
